<svg width="100" height="100" viewBox="0 0 512 512" fill="none" xmlns="http://www.w3.org/2000/svg">
<g clip-path="url(#clip0_508_609)">
<path fill-rule="evenodd" clip-rule="evenodd" d="M0 0H512V512H0V0V0Z" fill="#F7DF1E"/>
<path fill-rule="evenodd" clip-rule="evenodd" d="M134.624 427.865L173.806 404.153C181.365 417.555 188.241 428.894 204.735 428.894C220.545 428.894 230.513 422.71 230.513 398.654V235.058H278.628V399.334C278.628 449.169 249.416 471.852 206.797 471.852C168.307 471.852 145.964 451.917 134.623 427.861" fill="black"/>
<path fill-rule="evenodd" clip-rule="evenodd" d="M304.762 422.709L343.939 400.026C354.252 416.868 367.656 429.24 391.369 429.24C411.305 429.24 424.018 419.272 424.018 405.524C424.018 389.027 410.959 383.184 388.962 373.564L376.937 368.405C342.222 353.63 319.195 335.071 319.195 295.89C319.195 259.803 346.689 232.307 389.652 232.307C420.24 232.307 442.236 242.962 458.043 270.801L420.581 294.858C412.332 280.08 403.399 274.239 389.652 274.239C375.561 274.239 366.625 283.174 366.625 294.858C366.625 309.293 375.561 315.137 396.18 324.073L408.208 329.228C449.107 346.757 472.135 364.627 472.135 404.837C472.135 448.144 438.11 471.856 392.401 471.856C347.722 471.856 318.852 450.549 304.763 422.709" fill="black"/>
</g>
<defs>
<clipPath id="clip0_508_609">
<rect width="512" height="512" fill="white"/>
</clipPath>
</defs>
</svg>
